<?xml version="1.0" encoding="UTF-8" standalone="no"?>
<!-- Created with Inkscape (http://www.inkscape.org/) -->

<svg
   xmlns:dc="http://purl.org/dc/elements/1.1/"
   xmlns:cc="http://creativecommons.org/ns#"
   xmlns:rdf="http://www.w3.org/1999/02/22-rdf-syntax-ns#"
   xmlns:svg="http://www.w3.org/2000/svg"
   xmlns="http://www.w3.org/2000/svg"
   xmlns:sodipodi="http://sodipodi.sourceforge.net/DTD/sodipodi-0.dtd"
   xmlns:inkscape="http://www.inkscape.org/namespaces/inkscape"
   id="svg2"
   version="1.1"
   inkscape:version="0.48.4 r9939"
   width="240.00002"
   height="165.47107"
   xml:space="preserve"
   sodipodi:docname="calendario.svg"><metadata
     id="metadata8"><rdf:RDF><cc:Work
         rdf:about=""><dc:format>image/svg+xml</dc:format><dc:type
           rdf:resource="http://purl.org/dc/dcmitype/StillImage" /><dc:title></dc:title></cc:Work></rdf:RDF></metadata><defs
     id="defs6"><clipPath
       clipPathUnits="userSpaceOnUse"
       id="clipPath16"><path
         d="M 0,612 792,612 792,0 0,0 0,612 z"
         id="path18"
         inkscape:connector-curvature="0" /></clipPath><clipPath
       clipPathUnits="userSpaceOnUse"
       id="clipPath28"><path
         d="m 242.675,480.229 c -13.059,0 -23.647,-10.588 -23.647,-23.647 l 0,0 0,-184.914 c 0,-13.06 10.588,-23.649 23.647,-23.649 l 0,0 289.661,0 c 13.064,0 23.648,10.589 23.648,23.649 l 0,0 0,184.914 c 0,13.059 -10.584,23.647 -23.648,23.647 l 0,0 -289.661,0 z"
         id="path30"
         inkscape:connector-curvature="0" /></clipPath></defs><sodipodi:namedview
     pagecolor="#ffffff"
     bordercolor="#666666"
     borderopacity="1"
     objecttolerance="10"
     gridtolerance="10"
     guidetolerance="10"
     inkscape:pageopacity="0"
     inkscape:pageshadow="2"
     inkscape:window-width="1280"
     inkscape:window-height="1000"
     id="namedview4"
     showgrid="false"
     inkscape:zoom="1.2339869"
     inkscape:cx="162.16547"
     inkscape:cy="-12.574587"
     inkscape:window-x="0"
     inkscape:window-y="24"
     inkscape:window-maximized="1"
     inkscape:current-layer="g10"
     fit-margin-top="0"
     fit-margin-left="0"
     fit-margin-right="0"
     fit-margin-bottom="0" /><g
     id="g10"
     inkscape:groupmode="layer"
     inkscape:label="imagen calendario pa oct"
     transform="matrix(1.25,0,0,-1.25,-325.30579,621.1964)"><rect
       id="rect3078"
       width="192"
       height="132.3768"
       x="260.24463"
       y="-496.95709"
       transform="scale(1,-1)"
       style="fill:#445878;fill-opacity:1" /><g
       id="g3064"
       transform="translate(-29.448021,67.839203)"><g
         transform="matrix(0.56980564,0,0,0.57007634,164.88961,155.35073)"
         id="g12"><g
           clip-path="url(#clipPath16)"
           id="g14"><g
             transform="translate(555.9844,271.668)"
             id="g20"><path
               inkscape:connector-curvature="0"
               id="path22"
               style="fill:#dadbdc;fill-opacity:1;fill-rule:nonzero;stroke:none"
               d="m 0,0 c 0,-13.061 -10.584,-23.648 -23.647,-23.648 l -289.662,0 c -13.06,0 -23.648,10.587 -23.648,23.648 l 0,184.914 c 0,13.059 10.588,23.647 23.648,23.647 l 289.662,0 C -10.584,208.561 0,197.973 0,184.914 L 0,0 z" /></g></g></g><g
         transform="matrix(0.56980564,0,0,0.57007634,164.88955,155.35073)"
         id="g24"><g
           clip-path="url(#clipPath28)"
           id="g26"><g
             transform="translate(555.9844,434.2813)"
             id="g32"><path
               inkscape:connector-curvature="0"
               id="path34"
               style="fill:#b72b31;fill-opacity:1;fill-rule:nonzero;stroke:none"
               d="m 0,0 c 0,-13.061 -10.584,-23.648 -23.647,-23.648 l -289.662,0 c -13.06,0 -23.648,10.587 -23.648,23.648 l 0,184.914 c 0,13.061 10.588,23.647 23.648,23.647 l 289.662,0 C -10.584,208.561 0,197.975 0,184.914 L 0,0 z" /></g></g></g><text
         style="font-size:6.83929157px"
         y="-335.89957"
         x="352.48776"
         id="text36"
         transform="scale(0.99976256,-1.0002375)"><tspan
           y="-335.89957"
           x="352.48776"
           id="tspan38"
           sodipodi:role="line"
           style="font-size:43.20000076px;font-style:normal;font-variant:normal;font-weight:bold;font-stretch:normal;writing-mode:lr-tb;fill:#5f5f61;fill-opacity:1;fill-rule:nonzero;stroke:none;font-family:DejaVu Sans;-inkscape-font-specification:DejaVu Sans">XX</tspan></text>
<text
         style="font-size:6.83929157px"
         y="-400.44699"
         x="339.38974"
         id="text40"
         transform="scale(0.99976256,-1.0002375)"><tspan
           y="-400.44699"
           x="339.38974"
           id="tspan42"
           sodipodi:role="line"
           style="font-size:24px;font-style:normal;font-variant:normal;font-weight:bold;font-stretch:normal;writing-mode:lr-tb;fill:#ffffff;fill-opacity:1;fill-rule:nonzero;stroke:none;font-family:DejaVu Sans;-inkscape-font-specification:DejaVu Sans Bold">ENERO</tspan></text>
</g></g></svg>