<?xml version="1.0" encoding="UTF-8" standalone="no"?>
<svg
   xmlns:dc="http://purl.org/dc/elements/1.1/"
   xmlns:cc="http://creativecommons.org/ns#"
   xmlns:rdf="http://www.w3.org/1999/02/22-rdf-syntax-ns#"
   xmlns:svg="http://www.w3.org/2000/svg"
   xmlns="http://www.w3.org/2000/svg"
   xmlns:sodipodi="http://sodipodi.sourceforge.net/DTD/sodipodi-0.dtd"
   xmlns:inkscape="http://www.inkscape.org/namespaces/inkscape"
   height="60"
   id="Layer_1"
   version="1.1"
   viewBox="0 0 60 60"
   width="60"
   x="0px"
   xml:space="preserve"
   y="0px"
   inkscape:version="0.48.4 r9939"
   sodipodi:docname="1389311916_facebook_circle_color.svg"><metadata
     id="metadata3052"><rdf:RDF><cc:Work
         rdf:about=""><dc:format>image/svg+xml</dc:format><dc:type
           rdf:resource="http://purl.org/dc/dcmitype/StillImage" /><dc:title></dc:title></cc:Work></rdf:RDF></metadata><defs
     id="defs3050" /><sodipodi:namedview
     pagecolor="#ffffff"
     bordercolor="#666666"
     borderopacity="1"
     objecttolerance="10"
     gridtolerance="10"
     guidetolerance="10"
     inkscape:pageopacity="0"
     inkscape:pageshadow="2"
     inkscape:window-width="1280"
     inkscape:window-height="1000"
     id="namedview3048"
     showgrid="false"
     fit-margin-top="0"
     fit-margin-left="0"
     fit-margin-right="0"
     fit-margin-bottom="0"
     inkscape:zoom="8.6646965"
     inkscape:cx="40.559802"
     inkscape:cy="24.243606"
     inkscape:window-x="0"
     inkscape:window-y="24"
     inkscape:window-maximized="1"
     inkscape:current-layer="Layer_1" /><rect
     style="fill:#121433;fill-opacity:1"
     id="rect3054"
     width="60"
     height="60"
     x="0"
     y="0" /><rect
     style="fill:#ffffff;fill-opacity:1"
     id="rect4850"
     width="21.054811"
     height="40.640682"
     x="20.074907"
     y="10.821559" /><path
     d="m 25.765,46.32 h 6.744 V 29.998 h 4.499 l 0.596,-5.624 h -5.095 l 0.007,-2.816 c 0,-1.466 0.14,-2.253 2.244,-2.253 h 2.812 V 13.68 h -4.5 c -5.405,0 -7.307,2.729 -7.307,7.317 v 3.377 h -3.369 v 5.625 h 3.369 V 46.32 z M 30,60 C 13.432,60 3.9654541e-8,46.568 3.9654541e-8,30 3.9654541e-8,13.431 13.432,1.2625122e-8 30,1.2625122e-8 46.568,1.2625122e-8 60,13.431 60,30 60,46.568 46.568,60 30,60 z"
     style="fill:#3a589b;fill-rule:evenodd"
     id="path3046"
     inkscape:connector-curvature="0" /></svg>