<?xml version="1.0" encoding="UTF-8" standalone="no"?>
<svg
   xmlns:dc="http://purl.org/dc/elements/1.1/"
   xmlns:cc="http://creativecommons.org/ns#"
   xmlns:rdf="http://www.w3.org/1999/02/22-rdf-syntax-ns#"
   xmlns:svg="http://www.w3.org/2000/svg"
   xmlns="http://www.w3.org/2000/svg"
   xmlns:sodipodi="http://sodipodi.sourceforge.net/DTD/sodipodi-0.dtd"
   xmlns:inkscape="http://www.inkscape.org/namespaces/inkscape"
   height="60"
   id="Layer_1"
   version="1.1"
   viewBox="0 0 60 60"
   width="60"
   x="0px"
   xml:space="preserve"
   y="0px"
   inkscape:version="0.48.4 r9939"
   sodipodi:docname="1389311937_twitter_circle_color.svg"><metadata
     id="metadata3052"><rdf:RDF><cc:Work
         rdf:about=""><dc:format>image/svg+xml</dc:format><dc:type
           rdf:resource="http://purl.org/dc/dcmitype/StillImage" /><dc:title></dc:title></cc:Work></rdf:RDF></metadata><defs
     id="defs3050" /><sodipodi:namedview
     pagecolor="#ffffff"
     bordercolor="#666666"
     borderopacity="1"
     objecttolerance="10"
     gridtolerance="10"
     guidetolerance="10"
     inkscape:pageopacity="0"
     inkscape:pageshadow="2"
     inkscape:window-width="1280"
     inkscape:window-height="1000"
     id="namedview3048"
     showgrid="false"
     fit-margin-top="0"
     fit-margin-left="0"
     fit-margin-right="0"
     fit-margin-bottom="0"
     inkscape:zoom="12.253731"
     inkscape:cx="28.929354"
     inkscape:cy="26.779351"
     inkscape:window-x="0"
     inkscape:window-y="24"
     inkscape:window-maximized="1"
     inkscape:current-layer="Layer_1" /><rect
     style="fill:#121433;fill-opacity:1;stroke:none"
     id="rect3054"
     width="60"
     height="60"
     x="2.2030644e-08"
     y="0" /><rect
     style="fill:#ffffff;fill-opacity:1;stroke:none"
     id="rect3824"
     width="35.825821"
     height="33.948841"
     x="12.526187"
     y="12.657734" /><path
     d="m 34.167,18.283 c -2.619,0.953 -4.274,3.411 -4.086,6.101 l 0.063,1.038 -1.048,-0.127 C 25.283,24.808 21.951,23.156 19.122,20.38 l -1.383,-1.377 -0.356,1.017 c -0.754,2.267 -0.272,4.661 1.299,6.271 0.838,0.89 0.649,1.017 -0.796,0.487 -0.503,-0.169 -0.943,-0.296 -0.985,-0.233 -0.146,0.149 0.356,2.076 0.754,2.839 0.545,1.06 1.655,2.097 2.871,2.712 l 1.027,0.487 -1.215,0.021 c -1.173,0 -1.215,0.021 -1.089,0.467 0.419,1.377 2.074,2.839 3.918,3.475 l 1.299,0.444 -1.131,0.678 c -1.676,0.976 -3.646,1.526 -5.616,1.567 -0.944,0.021 -1.719,0.106 -1.719,0.17 0,0.211 2.557,1.397 4.044,1.864 4.463,1.377 9.765,0.783 13.746,-1.568 2.829,-1.674 5.657,-5 6.978,-8.221 0.713,-1.715 1.425,-4.851 1.425,-6.354 0,-0.975 0.063,-1.102 1.236,-2.267 0.692,-0.678 1.341,-1.419 1.467,-1.631 0.21,-0.403 0.188,-0.403 -0.88,-0.043 -1.781,0.636 -2.033,0.551 -1.152,-0.402 0.649,-0.678 1.425,-1.907 1.425,-2.267 0,-0.063 -0.314,0.042 -0.671,0.233 -0.377,0.212 -1.215,0.53 -1.844,0.72 l -1.131,0.361 -1.027,-0.7 C 39.05,18.749 38.255,18.325 37.835,18.198 36.766,17.902 35.131,17.944 34.167,18.283 z M 30,60 C 13.432,60 0,46.568 0,30 0,13.431 13.432,1.7828366e-8 30,1.7828366e-8 46.568,1.7828366e-8 60,13.431 60,30 60,46.568 46.568,60 30,60 z"
     style="fill:#598dca;fill-rule:evenodd"
     id="path3046"
     inkscape:connector-curvature="0" /></svg>