<?xml version="1.0" encoding="UTF-8" standalone="no"?>
<svg
   xmlns:dc="http://purl.org/dc/elements/1.1/"
   xmlns:cc="http://creativecommons.org/ns#"
   xmlns:rdf="http://www.w3.org/1999/02/22-rdf-syntax-ns#"
   xmlns:svg="http://www.w3.org/2000/svg"
   xmlns="http://www.w3.org/2000/svg"
   xmlns:sodipodi="http://sodipodi.sourceforge.net/DTD/sodipodi-0.dtd"
   xmlns:inkscape="http://www.inkscape.org/namespaces/inkscape"
   height="60"
   id="Layer_1"
   version="1.1"
   viewBox="0 0 60 60"
   width="60"
   x="0px"
   xml:space="preserve"
   y="0px"
   inkscape:version="0.48.4 r9939"
   sodipodi:docname="1389311911_youtube_circle_color.svg"><metadata
     id="metadata4906"><rdf:RDF><cc:Work
         rdf:about=""><dc:format>image/svg+xml</dc:format><dc:type
           rdf:resource="http://purl.org/dc/dcmitype/StillImage" /><dc:title></dc:title></cc:Work></rdf:RDF></metadata><defs
     id="defs4904" /><sodipodi:namedview
     pagecolor="#ffffff"
     bordercolor="#666666"
     borderopacity="1"
     objecttolerance="10"
     gridtolerance="10"
     guidetolerance="10"
     inkscape:pageopacity="0"
     inkscape:pageshadow="2"
     inkscape:window-width="1280"
     inkscape:window-height="1000"
     id="namedview4902"
     showgrid="false"
     fit-margin-top="0"
     fit-margin-left="0"
     fit-margin-right="0"
     fit-margin-bottom="0"
     inkscape:zoom="3.5223881"
     inkscape:cx="-16.904661"
     inkscape:cy="36.338985"
     inkscape:window-x="0"
     inkscape:window-y="24"
     inkscape:window-maximized="1"
     inkscape:current-layer="Layer_1" /><rect
     style="fill:#121433;fill-opacity:1;stroke:none"
     id="rect4908"
     width="60"
     height="60"
     x="0"
     y="0" /><rect
     style="fill:#ffffff;fill-opacity:1;stroke:none"
     id="rect5548"
     width="35.771187"
     height="45.991524"
     x="12.478814"
     y="6.0593195" /><path
     d="m 39.527,37.34 c -0.278,0 -0.478,0.078 -0.6,0.244 -0.121,0.156 -0.18,0.424 -0.18,0.796 v 0.896 H 40.29 V 38.38 c 0,-0.372 -0.062,-0.64 -0.185,-0.796 -0.116,-0.166 -0.313,-0.244 -0.578,-0.244 z m -6.018,-0.031 c 0.234,0 0.417,0.076 0.544,0.23 0.123,0.154 0.185,0.383 0.185,0.682 v 4.584 c 0,0.286 -0.053,0.487 -0.153,0.611 -0.1,0.127 -0.256,0.189 -0.47,0.189 -0.148,0 -0.287,-0.033 -0.421,-0.096 -0.135,-0.062 -0.274,-0.171 -0.415,-0.313 v -5.531 c 0.119,-0.122 0.239,-0.213 0.36,-0.271 0.121,-0.059 0.244,-0.085 0.37,-0.085 z m 5.239,3.349 v 1.672 c 0,0.468 0.057,0.792 0.17,0.974 0.118,0.181 0.313,0.269 0.592,0.269 0.289,0 0.491,-0.076 0.606,-0.229 0.114,-0.153 0.175,-0.489 0.175,-1.013 v -0.405 h 1.795 v 0.456 c 0,0.911 -0.217,1.596 -0.657,2.059 -0.435,0.459 -1.089,0.687 -1.958,0.687 -0.781,0 -1.398,-0.242 -1.847,-0.731 -0.448,-0.486 -0.676,-1.157 -0.676,-2.014 v -3.986 c 0,-0.768 0.249,-1.398 0.742,-1.882 0.493,-0.485 1.128,-0.727 1.911,-0.727 0.799,0 1.413,0.225 1.843,0.674 0.429,0.448 0.642,1.093 0.642,1.935 v 2.264 h -3.338 z m -3.125,3.837 c -0.271,0.336 -0.669,0.501 -1.187,0.501 -0.343,0 -0.646,-0.062 -0.912,-0.192 -0.267,-0.129 -0.519,-0.327 -0.746,-0.601 v 0.681 H 31.014 V 32.852 h 1.764 v 3.875 c 0.237,-0.27 0.485,-0.478 0.748,-0.617 0.267,-0.142 0.534,-0.211 0.805,-0.211 0.554,0 0.975,0.189 1.265,0.565 0.294,0.379 0.438,0.933 0.438,1.66 v 4.926 c 0,0.628 -0.137,1.109 -0.411,1.445 z m -7.665,0.389 v -0.976 c -0.325,0.361 -0.658,0.636 -1.009,0.822 -0.349,0.191 -0.686,0.282 -1.014,0.282 -0.405,0 -0.705,-0.129 -0.913,-0.396 -0.201,-0.266 -0.305,-0.658 -0.305,-1.189 v -7.422 h 1.744 v 6.809 c 0,0.211 0.037,0.362 0.107,0.457 0.077,0.095 0.196,0.141 0.358,0.141 0.128,0 0.292,-0.062 0.488,-0.188 0.197,-0.125 0.375,-0.283 0.542,-0.475 V 36.005 H 29.7 v 8.878 H 27.958 z M 21.916,34.6 V 44.884 H 19.948 V 34.6 H 17.914 V 32.852 H 23.95 V 34.6 h -2.034 z m 8.078,-5.622 c 0,-0.001 12.08,0.018 13.514,1.45 1.439,1.435 1.455,8.514 1.455,8.555 0,0 -0.012,7.117 -1.455,8.556 C 42.074,48.969 29.994,49 29.994,49 c 0,0 -12.079,-0.031 -13.516,-1.462 -1.438,-1.435 -1.441,-8.502 -1.441,-8.556 0,-0.041 0.004,-7.12 1.441,-8.555 1.438,-1.431 13.516,-1.45 13.516,-1.449 z m 9.526,-3.723 h -1.966 v -1.08 c -0.358,0.397 -0.736,0.703 -1.13,0.909 -0.392,0.208 -0.771,0.312 -1.14,0.312 -0.458,0 -0.797,-0.146 -1.027,-0.437 -0.229,-0.291 -0.345,-0.727 -0.345,-1.311 v -8.172 h 1.962 v 7.497 c 0,0.231 0.045,0.399 0.127,0.502 0.08,0.104 0.216,0.156 0.399,0.156 0.143,0 0.327,-0.069 0.548,-0.206 0.22,-0.137 0.423,-0.312 0.605,-0.527 v -7.422 h 1.966 v 9.779 z M 28.847,23.588 c 0.139,0.147 0.339,0.219 0.6,0.219 0.266,0 0.476,-0.075 0.634,-0.223 0.157,-0.152 0.235,-0.358 0.235,-0.618 v -5.327 c 0,-0.214 -0.08,-0.387 -0.241,-0.519 -0.16,-0.131 -0.37,-0.196 -0.628,-0.196 -0.241,0 -0.435,0.065 -0.586,0.196 -0.148,0.132 -0.225,0.305 -0.225,0.519 v 5.327 c 0,0.267 0.072,0.473 0.211,0.622 z m -1.439,-7.685 c 0.528,-0.449 1.241,-0.674 2.132,-0.674 0.812,0 1.48,0.237 2.001,0.711 0.517,0.473 0.777,1.083 0.777,1.828 v 5.051 c 0,0.836 -0.255,1.491 -0.762,1.968 -0.513,0.476 -1.212,0.714 -2.106,0.714 -0.858,0 -1.547,-0.246 -2.064,-0.736 -0.513,-0.492 -0.772,-1.153 -0.772,-1.984 v -5.068 c -0.001,-0.759 0.263,-1.362 0.794,-1.81 z M 21.262,12 h -2.229 l 2.634,8.003 v 5.252 h 2.213 v -5.5 L 26.454,12 h -2.25 l -1.366,5.298 H 22.699 L 21.262,12 z M 30,60 C 13.432,60 1.7867401e-7,46.568 1.7867401e-7,30 1.7867401e-7,13.431 13.432,1.5688477e-7 30,1.5688477e-7 46.568,1.5688477e-7 60,13.431 60,30 60,46.568 46.568,60 30,60 z"
     style="fill:#cf3427;fill-rule:evenodd"
     id="path4900"
     inkscape:connector-curvature="0" /></svg>